<svg width="24" height="24" viewBox="0 0 24 24" fill="none" xmlns="http://www.w3.org/2000/svg">
<path d="M5.27501 16.7528C5.27501 20.6119 9.77734 23.3991 13.1541 21.2551L16.4772 19.1647C19.2108 17.4496 17.71 14.9304 16.1556 14.448L9.99174 18.1463" fill="url(#paint0_linear_208_29275)"/>
<path d="M6.56139 2.17379C5.9718 1.745 5.27501 2.17379 5.27501 2.76338V16.7528C5.27501 18.7895 7.36538 19.7543 8.86615 18.8431L9.99174 18.1463V5.55054C9.956 4.80015 9.56294 4.17482 8.81255 3.67457" fill="url(#paint1_linear_208_29275)"/>
<path d="M12.5645 8.33768C11.8677 7.96249 11.1709 8.71287 11.5461 9.40966L12.9397 13.0008C13.1184 13.3224 13.3863 13.5547 13.7437 13.6976C16.0484 14.5552 16.8524 14.5016 17.5492 15.5736C18.246 16.6456 17.8708 17.8783 17.2812 18.5215C19.5324 16.1632 19.2644 11.7144 15.6732 9.94565" fill="url(#paint2_radial_208_29275)"/>
<defs>
<linearGradient id="paint0_linear_208_29275" x1="5.27501" y1="14.448" x2="17.9927" y2="14.448" gradientUnits="userSpaceOnUse">
<stop stop-color="#5FE9FF"/>
<stop offset="0.5" stop-color="#4BB1F1"/>
<stop offset="1" stop-color="#1440DF"/>
</linearGradient>
<linearGradient id="paint1_linear_208_29275" x1="5.27501" y1="2" x2="5.27501" y2="19.1876" gradientUnits="userSpaceOnUse">
<stop stop-color="#3BC0F6"/>
<stop offset="0.5" stop-color="#3693FA"/>
<stop offset="1" stop-color="#1B42D8"/>
</linearGradient>
<radialGradient id="paint2_radial_208_29275" cx="0" cy="0" r="1" gradientUnits="userSpaceOnUse" gradientTransform="translate(18.725 15.4363) scale(7.28404 10.284)">
<stop stop-color="#6ADFD4"/>
<stop offset="0.5" stop-color="#15D2E5"/>
<stop offset="1" stop-color="#36BEFE"/>
</radialGradient>
</defs>
</svg>
