<svg width="24" height="24" viewBox="0 0 24 24" fill="none" xmlns="http://www.w3.org/2000/svg">
<g clip-path="url(#clip0_208_29276)">
<path d="M12 2C6.475 2 2 6.475 2 12C2 17.525 6.475 22 12 22C17.525 22 22 17.525 22 12C22 6.475 17.525 2 12 2ZM12 2.82C17.0692 2.82 21.18 6.93 21.18 12C21.18 17.07 17.07 21.18 12 21.18C6.93 21.18 2.82 17.07 2.82 12C2.82 6.93083 6.93 2.82 12 2.82ZM12 3.60167C7.36167 3.60167 3.60167 7.36167 3.60167 12C3.60167 15.6975 5.99083 18.8375 9.31 19.9583C9.1125 19.275 8.66333 17.6642 7.97667 14.915C6.99 10.9642 6.25667 7.74333 9.95917 6.7375C9.99833 6.72833 10.0125 6.68417 9.98417 6.66C9.55583 6.27083 8.8325 6.20333 8.12333 6.34333C8.11624 6.34453 8.10898 6.34419 8.10203 6.34233C8.09509 6.34046 8.08863 6.33712 8.08309 6.33254C8.07755 6.32795 8.07307 6.32222 8.06995 6.31574C8.06683 6.30926 8.06514 6.30219 8.065 6.295C8.065 6.28583 8.065 6.27583 8.07417 6.26583C8.245 6.0275 8.55083 5.84333 8.75917 5.7325C8.60973 5.60828 8.43809 5.51355 8.25333 5.45333C8.20417 5.435 8.20417 5.35333 8.24833 5.33333C8.25333 5.32833 8.25833 5.32333 8.26833 5.32333C9.72583 5.12917 11.2567 5.56667 12.01 6.53C12.0192 6.53917 12.0292 6.54417 12.0392 6.54917C14.5125 7.07833 14.9633 10.58 14.8125 11.5475C15.4818 11.4704 16.1386 11.3091 16.7675 11.0675C17.3892 10.8292 17.6075 10.8825 17.685 11.0233C17.7683 11.1842 17.67 11.4508 17.4517 11.6983C17.0383 12.1708 16.2908 12.54 14.9733 12.6458C14.5183 12.6825 14.1158 12.6658 13.7692 12.6508C13.1117 12.6217 12.6533 12.6017 12.4083 12.9758C12.2483 13.2242 12.3742 13.8075 13.6475 13.9925C14.5558 14.1233 15.3792 14.0317 15.9792 13.9642C16.515 13.9058 16.8733 13.8658 16.9558 14.0217C17.1308 14.3567 16.1258 15.0275 14.4008 15.0417C14.2692 15.0417 14.1383 15.0367 14.0117 15.0325C12.9425 14.9783 12.1558 14.6875 11.665 14.42C11.6544 14.4174 11.6445 14.4125 11.6358 14.4058C11.5483 14.3567 11.3775 14.4433 11.4792 14.6283C11.5375 14.74 11.8492 15.0267 12.3158 15.275C12.2675 15.6633 12.3883 16.2617 12.5975 16.9417L12.6708 16.9283C12.705 16.9208 12.7433 16.9125 12.7825 16.9075C13.205 16.8392 13.4283 16.9175 13.5542 17.0533C14.1517 16.6067 15.1483 15.975 15.2458 16.0917C15.7317 16.67 15.7958 18.035 15.6875 18.5833C15.6842 18.5933 15.6733 18.6033 15.6542 18.6125C15.4258 18.71 14.1683 18.3658 14.1683 18.1867C14.1192 17.2908 13.9517 17.2092 13.7575 17.1658H13.6275C13.6325 17.1708 13.6375 17.1808 13.6425 17.1908L13.6858 17.2908C13.7633 17.505 13.8858 18.1767 13.7942 18.3408C13.7008 18.5067 13.0983 18.5883 12.7242 18.5933C12.355 18.5983 12.2717 18.4617 12.1933 18.2533C12.135 18.0833 12.1075 17.6908 12.1075 17.4617C12.1032 17.4015 12.1066 17.341 12.1175 17.2817C12.0058 17.33 11.84 17.4425 11.7867 17.5158C11.7725 17.7342 11.7725 18.0842 11.8892 18.4733C11.9475 18.6575 10.6242 19.4433 10.4392 19.2983C10.25 19.1475 9.91083 17.6717 10.0567 17.0733C9.90083 17.0875 9.775 17.1358 9.70667 17.2325C9.40083 17.6558 9.78417 19.6767 10.1917 19.9392C10.4058 20.08 11.475 19.4783 12.005 19.0267C12.0925 19.1475 12.2592 19.1583 12.4658 19.1583C12.7375 19.1483 13.1175 19.1083 13.385 19.0267C13.545 19.4017 13.7375 19.8367 13.8958 20.1833C17.6208 19.3233 20.3983 15.9858 20.3983 12C20.3983 7.36167 16.6383 3.60167 12 3.60167ZM13.4925 8.30667C13.1425 8.30667 12.9275 8.42833 12.83 8.58333C12.8108 8.6225 12.8692 8.66167 12.9083 8.64167C13.025 8.57917 13.2058 8.5075 13.4925 8.51167C13.7658 8.51667 13.9225 8.58667 14.0508 8.64417L14.07 8.6525C14.1042 8.66667 14.1433 8.6275 14.1192 8.59833C14.0075 8.44833 13.8425 8.30667 13.4925 8.30667ZM9.26083 8.47167C9.11261 8.46293 8.96424 8.48623 8.82583 8.54C8.4475 8.68083 8.2675 8.97833 8.2675 9.17333C8.2675 9.21583 8.36083 9.22083 8.385 9.1825C8.4525 9.08 8.56 8.92417 8.89917 8.78417C9.23917 8.6425 9.5075 8.6625 9.69167 8.70583C9.73083 8.71583 9.76083 8.67167 9.72583 8.6475C9.59263 8.54242 9.43024 8.48102 9.26083 8.47167ZM13.7892 9.6575C13.7179 9.65706 13.6473 9.67066 13.5813 9.69752C13.5153 9.72438 13.4553 9.76397 13.4046 9.81403C13.3539 9.8641 13.3136 9.92366 13.2859 9.98931C13.2582 10.055 13.2438 10.1254 13.2433 10.1967C13.2433 10.3411 13.3007 10.4796 13.4028 10.5817C13.505 10.6839 13.6435 10.7412 13.7879 10.7412C13.9323 10.7412 14.0709 10.6839 14.173 10.5817C14.2751 10.4796 14.3325 10.3411 14.3325 10.1967C14.3326 10.1255 14.3186 10.055 14.2913 9.98924C14.264 9.9235 14.2239 9.86383 14.1734 9.81369C14.1228 9.76355 14.0629 9.72392 13.9969 9.69711C13.931 9.6703 13.8604 9.65684 13.7892 9.6575ZM14.025 9.87583H14.0317C14.0692 9.87583 14.1053 9.89076 14.1318 9.91733C14.1584 9.94389 14.1733 9.97993 14.1733 10.0175C14.1733 10.095 14.1092 10.1592 14.0317 10.1592C13.9941 10.1592 13.9581 10.1442 13.9315 10.1177C13.9049 10.0911 13.89 10.0551 13.89 10.0175C13.89 9.9425 13.95 9.88 14.025 9.87583ZM9.56 9.93917C9.47686 9.9385 9.39442 9.95438 9.31749 9.98589C9.24055 10.0174 9.17065 10.0639 9.11186 10.1227C9.05307 10.1815 9.00657 10.2514 8.97506 10.3283C8.94355 10.4053 8.92767 10.4877 8.92833 10.5708C8.92833 10.9208 9.21 11.2025 9.56 11.2025C9.91 11.2025 10.1917 10.9217 10.1917 10.5708C10.1919 10.4878 10.1757 10.4056 10.144 10.3288C10.1124 10.2521 10.0658 10.1824 10.0071 10.1237C9.94845 10.065 9.87872 10.0185 9.80199 9.9868C9.72525 9.95513 9.64301 9.93895 9.56 9.93917ZM9.83333 10.1917H9.84167C9.935 10.1917 10.0083 10.2658 10.0083 10.3583C10.0083 10.45 9.935 10.5225 9.84167 10.5225C9.81997 10.5227 9.79846 10.5186 9.77838 10.5104C9.75831 10.5022 9.74009 10.49 9.72478 10.4746C9.70948 10.4592 9.69742 10.441 9.6893 10.4208C9.68118 10.4007 9.67717 10.3792 9.6775 10.3575C9.6775 10.2683 9.74583 10.1958 9.83333 10.1917Z" fill="#F04B20"/>
</g>
<defs>
<clipPath id="clip0_208_29276">
<rect width="20" height="20" fill="white" transform="translate(2 2)"/>
</clipPath>
</defs>
</svg>
