<svg width="24" height="24" viewBox="0 0 24 24" fill="none" xmlns="http://www.w3.org/2000/svg">
<g clip-path="url(#clip0_208_29273)">
<path d="M21.9905 12.1915C21.9905 11.3529 21.9224 10.7409 21.7752 10.1063H12.1992V13.8913H17.8201C17.7068 14.8319 17.0948 16.2485 15.7349 17.2004L15.7159 17.3271L18.7436 19.6727L18.9534 19.6936C20.8798 17.9144 21.9905 15.2966 21.9905 12.1915Z" fill="#4285F4"/>
<path d="M12.1992 22.1641C14.953 22.1641 17.2648 21.2574 18.9534 19.6936L15.7349 17.2004C14.8737 17.801 13.7177 18.2203 12.1992 18.2203C9.50211 18.2203 7.21297 16.4412 6.39695 13.9821L6.27734 13.9922L3.12906 16.4287L3.08789 16.5431C4.76508 19.8749 8.21016 22.1641 12.1992 22.1641Z" fill="#34A853"/>
<path d="M6.39695 13.982C6.18164 13.3474 6.05703 12.6674 6.05703 11.9648C6.05703 11.2622 6.18164 10.5822 6.38563 9.94763L6.37992 9.81248L3.19219 7.33685L3.08789 7.38646C2.39664 8.76904 2 10.3216 2 11.9648C2 13.608 2.39664 15.1605 3.08789 16.5431L6.39695 13.982Z" fill="#FBBC05"/>
<path d="M12.1992 5.7093C14.1144 5.7093 15.4063 6.53656 16.1429 7.22789L19.0213 4.41742C17.2535 2.77422 14.953 1.76562 12.1992 1.76562C8.21016 1.76562 4.76508 4.05477 3.08789 7.38648L6.38563 9.94766C7.21297 7.48852 9.50211 5.7093 12.1992 5.7093Z" fill="#EB4335"/>
</g>
<defs>
<clipPath id="clip0_208_29273">
<rect width="20" height="20.4688" fill="white" transform="translate(2 1.76562)"/>
</clipPath>
</defs>
</svg>
