<svg width="24" height="24" viewBox="0 0 24 24" fill="none" xmlns="http://www.w3.org/2000/svg">
<path d="M3.19995 19.1998V9.5998H4.79995V11.1998H6.39995V4.7998H7.99995V6.3998H9.59995V4.7998H11.2V6.3998H12.8V4.7998H14.4V6.3998H16V4.7998H17.6V11.1998H19.2V9.5998H20.8V19.1998H13.6V16.7998C13.6 16.3598 13.4433 15.9831 13.13 15.6698C12.8166 15.3565 12.44 15.1998 12 15.1998C11.56 15.1998 11.1833 15.3565 10.87 15.6698C10.5566 15.9831 10.4 16.3598 10.4 16.7998V19.1998H3.19995ZM4.79995 17.5998H8.79995V16.7998C8.79995 15.9198 9.11328 15.1665 9.73995 14.5398C10.3666 13.9131 11.12 13.5998 12 13.5998C12.88 13.5998 13.6333 13.9131 14.26 14.5398C14.8866 15.1665 15.2 15.9198 15.2 16.7998V17.5998H19.2V12.7998H16V7.9998H7.99995V12.7998H4.79995V17.5998ZM9.59995 11.9998H11.2V9.5998H9.59995V11.9998ZM12.8 11.9998H14.4V9.5998H12.8V11.9998Z" fill="white"/>
</svg>
