<svg width="24" height="24" viewBox="0 0 24 24" fill="none" xmlns="http://www.w3.org/2000/svg">
<path d="M12 7.5C12.255 7.5 12.4688 7.41375 12.6413 7.24125C12.8138 7.06875 12.9 6.855 12.9 6.6C12.9 6.345 12.8138 6.13125 12.6413 5.95875C12.4688 5.78625 12.255 5.7 12 5.7C11.745 5.7 11.5312 5.78625 11.3588 5.95875C11.1862 6.13125 11.1 6.345 11.1 6.6C11.1 6.855 11.1862 7.06875 11.3588 7.24125C11.5312 7.41375 11.745 7.5 12 7.5ZM11.1 14.7H12.9V9.3H11.1V14.7ZM3 21V4.8C3 4.305 3.17625 3.88125 3.52875 3.52875C3.88125 3.17625 4.305 3 4.8 3H19.2C19.695 3 20.1187 3.17625 20.4713 3.52875C20.8237 3.88125 21 4.305 21 4.8V15.6C21 16.095 20.8237 16.5188 20.4713 16.8713C20.1187 17.2238 19.695 17.4 19.2 17.4H6.6L3 21ZM5.835 15.6H19.2V4.8H4.8V16.6125L5.835 15.6Z" fill="white"/>
</svg>
