<svg width="24" height="24" viewBox="0 0 24 24" fill="none" xmlns="http://www.w3.org/2000/svg">
<path d="M5.47363 21.0261C4.92363 21.0261 4.4528 20.8303 4.06113 20.4386C3.66947 20.047 3.47363 19.5761 3.47363 19.0261V5.02612C3.47363 4.47612 3.66947 4.00529 4.06113 3.61362C4.4528 3.22196 4.92363 3.02612 5.47363 3.02612H19.4736C20.0236 3.02612 20.4945 3.22196 20.8861 3.61362C21.2778 4.00529 21.4736 4.47612 21.4736 5.02612V19.0261C21.4736 19.5761 21.2778 20.047 20.8861 20.4386C20.4945 20.8303 20.0236 21.0261 19.4736 21.0261H5.47363ZM5.47363 19.0261H19.4736V5.02612H5.47363V19.0261Z" fill="white"/>
</svg>
