<svg width="24" height="24" viewBox="0 0 24 24" fill="none" xmlns="http://www.w3.org/2000/svg">
<path d="M5 21.1893C4.45 21.1893 3.97917 20.9935 3.5875 20.6018C3.19583 20.2102 3 19.7393 3 19.1893V5.18933C3 4.63933 3.19583 4.1685 3.5875 3.77683C3.97917 3.38516 4.45 3.18933 5 3.18933H19C19.55 3.18933 20.0208 3.38516 20.4125 3.77683C20.8042 4.1685 21 4.63933 21 5.18933V19.1893C21 19.7393 20.8042 20.2102 20.4125 20.6018C20.0208 20.9935 19.55 21.1893 19 21.1893H5ZM8 19.1893V5.18933H5V19.1893H8ZM10 19.1893H19V5.18933H10V19.1893Z" fill="white"/>
</svg>
