<svg width="24" height="24" viewBox="0 0 24 24" fill="none" xmlns="http://www.w3.org/2000/svg">
<path d="M5.23779 21.1893C4.68779 21.1893 4.21696 20.9935 3.82529 20.6018C3.43363 20.2102 3.23779 19.7393 3.23779 19.1893V5.18933C3.23779 4.63933 3.43363 4.1685 3.82529 3.77683C4.21696 3.38516 4.68779 3.18933 5.23779 3.18933H19.2378C19.7878 3.18933 20.2586 3.38516 20.6503 3.77683C21.042 4.1685 21.2378 4.63933 21.2378 5.18933V19.1893C21.2378 19.7393 21.042 20.2102 20.6503 20.6018C20.2586 20.9935 19.7878 21.1893 19.2378 21.1893H5.23779ZM16.2378 19.1893H19.2378V5.18933H16.2378V19.1893ZM14.2378 19.1893V5.18933H5.23779V19.1893H14.2378Z" fill="white"/>
</svg>
