<svg width="24" height="24" viewBox="0 0 24 24" fill="none" xmlns="http://www.w3.org/2000/svg">
<path d="M7.8 18C6.95 18 6.1375 17.85 5.3625 17.55C4.5875 17.25 3.89167 16.8083 3.275 16.225C2.475 15.475 1.89583 14.5875 1.5375 13.5625C1.17917 12.5375 1 11.475 1 10.375C1 9.075 1.31667 8.02083 1.95 7.2125C2.58333 6.40417 3.50833 6 4.725 6C4.95833 6 5.17917 6.02083 5.3875 6.0625C5.59583 6.10417 5.80833 6.16667 6.025 6.25L12 8.475L17.975 6.25C18.1917 6.16667 18.4042 6.10417 18.6125 6.0625C18.8208 6.02083 19.0417 6 19.275 6C20.4917 6 21.4167 6.40417 22.05 7.2125C22.6833 8.02083 23 9.075 23 10.375C23 11.475 22.8208 12.5375 22.4625 13.5625C22.1042 14.5875 21.525 15.475 20.725 16.225C20.1083 16.8083 19.4125 17.25 18.6375 17.55C17.8625 17.85 17.05 18 16.2 18C15.1 18 14.1667 17.75 13.4 17.25L12.25 16.5H11.75L10.6 17.25C9.83333 17.75 8.9 18 7.8 18ZM8.725 14C9.20833 14 9.59167 13.8875 9.875 13.6625C10.1583 13.4375 10.3 13.1333 10.3 12.75C10.3 12.1 9.86667 11.4792 9 10.8875C8.13333 10.2958 7.225 10 6.275 10C5.79167 10 5.40833 10.1125 5.125 10.3375C4.84167 10.5625 4.7 10.8667 4.7 11.25C4.7 11.9 5.13333 12.5208 6 13.1125C6.86667 13.7042 7.775 14 8.725 14ZM15.275 14C16.225 14 17.1333 13.7042 18 13.1125C18.8667 12.5208 19.3 11.9 19.3 11.25C19.3 10.85 19.1625 10.5417 18.8875 10.325C18.6125 10.1083 18.225 10 17.725 10C16.775 10 15.8667 10.2958 15 10.8875C14.1333 11.4792 13.7 12.1 13.7 12.75C13.7 13.1333 13.8375 13.4375 14.1125 13.6625C14.3875 13.8875 14.775 14 15.275 14Z" fill="white"/>
</svg>
