<svg width="24" height="24" viewBox="0 0 24 24" fill="none" xmlns="http://www.w3.org/2000/svg">
<path d="M6.10273 18.5472H7.3694L16.0583 9.85835L14.7916 8.59168L6.10273 17.2806V18.5472ZM4.32495 20.325V16.5472L16.0583 4.83612C16.2361 4.67316 16.4324 4.54723 16.6472 4.45835C16.862 4.36946 17.0879 4.32501 17.325 4.32501C17.562 4.32501 17.7916 4.36946 18.0138 4.45835C18.2361 4.54723 18.4287 4.68057 18.5916 4.85835L19.8138 6.10279C19.9916 6.26575 20.1212 6.45835 20.2027 6.68057C20.2842 6.90279 20.325 7.12501 20.325 7.34723C20.325 7.58427 20.2842 7.8102 20.2027 8.02501C20.1212 8.23983 19.9916 8.43612 19.8138 8.6139L8.10273 20.325H4.32495ZM15.4138 9.23612L14.7916 8.59168L16.0583 9.85835L15.4138 9.23612Z" fill="white"/>
</svg>
