<svg width="24" height="24" viewBox="0 0 24 24" fill="none" xmlns="http://www.w3.org/2000/svg">
<path d="M7 15.6359C7.71212 15.6359 8.4053 15.7154 9.07955 15.8745C9.75379 16.0336 10.4242 16.2723 11.0909 16.5904V7.6359C10.4697 7.27226 9.81061 6.99953 9.11364 6.81772C8.41667 6.6359 7.71212 6.54499 7 6.54499C6.45455 6.54499 5.91288 6.59802 5.375 6.70408C4.83712 6.81014 4.31818 6.96923 3.81818 7.18135V16.1814C4.34848 15.9995 4.875 15.8632 5.39773 15.7723C5.92045 15.6814 6.45455 15.6359 7 15.6359ZM12.9091 16.5904C13.5758 16.2723 14.2462 16.0336 14.9205 15.8745C15.5947 15.7154 16.2879 15.6359 17 15.6359C17.5455 15.6359 18.0795 15.6814 18.6023 15.7723C19.125 15.8632 19.6515 15.9995 20.1818 16.1814V7.18135C19.6818 6.96923 19.1629 6.81014 18.625 6.70408C18.0871 6.59802 17.5455 6.54499 17 6.54499C16.2879 6.54499 15.5833 6.6359 14.8864 6.81772C14.1894 6.99953 13.5303 7.27226 12.9091 7.6359V16.5904ZM12 19.2723C11.2727 18.6965 10.4848 18.2495 9.63636 17.9314C8.78788 17.6132 7.90909 17.4541 7 17.4541C6.36364 17.4541 5.73864 17.5374 5.125 17.7041C4.51136 17.8707 3.92424 18.1056 3.36364 18.4086C3.04545 18.5753 2.73864 18.5677 2.44318 18.3859C2.14773 18.2041 2 17.9389 2 17.5904V6.6359C2 6.46923 2.04167 6.31014 2.125 6.15862C2.20833 6.00711 2.33333 5.89347 2.5 5.81772C3.19697 5.45408 3.92424 5.18135 4.68182 4.99953C5.43939 4.81772 6.21212 4.72681 7 4.72681C7.87879 4.72681 8.73864 4.84044 9.57955 5.06772C10.4205 5.29499 11.2273 5.6359 12 6.09044C12.7727 5.6359 13.5795 5.29499 14.4205 5.06772C15.2614 4.84044 16.1212 4.72681 17 4.72681C17.7879 4.72681 18.5606 4.81772 19.3182 4.99953C20.0758 5.18135 20.803 5.45408 21.5 5.81772C21.6667 5.89347 21.7917 6.00711 21.875 6.15862C21.9583 6.31014 22 6.46923 22 6.6359V17.5904C22 17.9389 21.8523 18.2041 21.5568 18.3859C21.2614 18.5677 20.9545 18.5753 20.6364 18.4086C20.0758 18.1056 19.4886 17.8707 18.875 17.7041C18.2614 17.5374 17.6364 17.4541 17 17.4541C16.0909 17.4541 15.2121 17.6132 14.3636 17.9314C13.5152 18.2495 12.7273 18.6965 12 19.2723Z" fill="white"/>
</svg>
