<svg width="24" height="24" viewBox="0 0 24 24" fill="none" xmlns="http://www.w3.org/2000/svg">
<path d="M7.11111 20C6.25185 20 5.51852 19.6963 4.91111 19.0889C4.3037 18.4815 4 17.7481 4 16.8889C4 16.0296 4.3037 15.2963 4.91111 14.6889C5.51852 14.0815 6.25185 13.7778 7.11111 13.7778H8.44444V10.2222H7.11111C6.25185 10.2222 5.51852 9.91852 4.91111 9.31111C4.3037 8.7037 4 7.97037 4 7.11111C4 6.25185 4.3037 5.51852 4.91111 4.91111C5.51852 4.3037 6.25185 4 7.11111 4C7.97037 4 8.7037 4.3037 9.31111 4.91111C9.91852 5.51852 10.2222 6.25185 10.2222 7.11111V8.44444H13.7778V7.11111C13.7778 6.25185 14.0815 5.51852 14.6889 4.91111C15.2963 4.3037 16.0296 4 16.8889 4C17.7481 4 18.4815 4.3037 19.0889 4.91111C19.6963 5.51852 20 6.25185 20 7.11111C20 7.97037 19.6963 8.7037 19.0889 9.31111C18.4815 9.91852 17.7481 10.2222 16.8889 10.2222H15.5556V13.7778H16.8889C17.7481 13.7778 18.4815 14.0815 19.0889 14.6889C19.6963 15.2963 20 16.0296 20 16.8889C20 17.7481 19.6963 18.4815 19.0889 19.0889C18.4815 19.6963 17.7481 20 16.8889 20C16.0296 20 15.2963 19.6963 14.6889 19.0889C14.0815 18.4815 13.7778 17.7481 13.7778 16.8889V15.5556H10.2222V16.8889C10.2222 17.7481 9.91852 18.4815 9.31111 19.0889C8.7037 19.6963 7.97037 20 7.11111 20ZM7.11111 18.2222C7.48148 18.2222 7.7963 18.0926 8.05556 17.8333C8.31482 17.5741 8.44444 17.2593 8.44444 16.8889V15.5556H7.11111C6.74074 15.5556 6.42593 15.6852 6.16667 15.9444C5.90741 16.2037 5.77778 16.5185 5.77778 16.8889C5.77778 17.2593 5.90741 17.5741 6.16667 17.8333C6.42593 18.0926 6.74074 18.2222 7.11111 18.2222ZM16.8889 18.2222C17.2593 18.2222 17.5741 18.0926 17.8333 17.8333C18.0926 17.5741 18.2222 17.2593 18.2222 16.8889C18.2222 16.5185 18.0926 16.2037 17.8333 15.9444C17.5741 15.6852 17.2593 15.5556 16.8889 15.5556H15.5556V16.8889C15.5556 17.2593 15.6852 17.5741 15.9444 17.8333C16.2037 18.0926 16.5185 18.2222 16.8889 18.2222ZM10.2222 13.7778H13.7778V10.2222H10.2222V13.7778ZM7.11111 8.44444H8.44444V7.11111C8.44444 6.74074 8.31482 6.42593 8.05556 6.16667C7.7963 5.90741 7.48148 5.77778 7.11111 5.77778C6.74074 5.77778 6.42593 5.90741 6.16667 6.16667C5.90741 6.42593 5.77778 6.74074 5.77778 7.11111C5.77778 7.48148 5.90741 7.7963 6.16667 8.05556C6.42593 8.31482 6.74074 8.44444 7.11111 8.44444ZM15.5556 8.44444H16.8889C17.2593 8.44444 17.5741 8.31482 17.8333 8.05556C18.0926 7.7963 18.2222 7.48148 18.2222 7.11111C18.2222 6.74074 18.0926 6.42593 17.8333 6.16667C17.5741 5.90741 17.2593 5.77778 16.8889 5.77778C16.5185 5.77778 16.2037 5.90741 15.9444 6.16667C15.6852 6.42593 15.5556 6.74074 15.5556 7.11111V8.44444Z" fill="white"/>
</svg>
