<svg width="24" height="24" viewBox="0 0 24 24" fill="none" xmlns="http://www.w3.org/2000/svg">
<path d="M2 19.3648L5.17608 13.0127C5.32951 12.7058 5.54816 12.4603 5.83201 12.2762C6.11586 12.0921 6.43424 12 6.78714 12C7.15538 12 7.49293 12.0959 7.7998 12.2877C8.10667 12.4795 8.32914 12.7518 8.46724 13.1047L9.08864 14.6237C9.11933 14.7158 9.18837 14.758 9.29578 14.7503C9.40318 14.7426 9.47223 14.6928 9.50291 14.6007L11.4822 7.99539C11.697 7.25891 12.1075 6.66819 12.7135 6.22323C13.3196 5.77827 14.0062 5.5558 14.7734 5.5558C15.5252 5.5558 16.1965 5.77444 16.7872 6.21173C17.3779 6.64901 17.7883 7.22055 18.0185 7.92635L22.0001 19.3648H20.0438L16.2693 8.50173C16.1466 8.14883 15.9548 7.87648 15.694 7.68469C15.4331 7.4929 15.1263 7.397 14.7734 7.397C14.4205 7.397 14.1098 7.49673 13.8413 7.6962C13.5727 7.89566 13.3771 8.17184 13.2544 8.52474L11.2751 15.1301C11.137 15.5597 10.8877 15.9126 10.5271 16.1888C10.1665 16.4649 9.75608 16.603 9.29578 16.603C8.88151 16.603 8.49792 16.4918 8.14502 16.2693C7.79213 16.0468 7.53896 15.7361 7.38553 15.3372L6.76412 13.8182L4.04834 19.3648H2ZM6.46492 10.1588C5.69775 10.1588 5.04566 9.88647 4.50864 9.34177C3.97162 8.79709 3.70312 8.14883 3.70312 7.397C3.70312 6.62983 3.97162 5.97774 4.50864 5.44072C5.04566 4.9037 5.69775 4.63519 6.46492 4.63519C7.23209 4.63519 7.88419 4.9037 8.42121 5.44072C8.95822 5.97774 9.22673 6.62983 9.22673 7.397C9.22673 8.14883 8.95822 8.79709 8.42121 9.34177C7.88419 9.88647 7.23209 10.1588 6.46492 10.1588ZM6.46492 8.3176C6.72576 8.3176 6.9444 8.22938 7.12085 8.05293C7.2973 7.87648 7.38553 7.65784 7.38553 7.397C7.38553 7.13616 7.2973 6.91752 7.12085 6.74107C6.9444 6.56462 6.72576 6.4764 6.46492 6.4764C6.20409 6.4764 5.98544 6.56462 5.80899 6.74107C5.63255 6.91752 5.54432 7.13616 5.54432 7.397C5.54432 7.65784 5.63255 7.87648 5.80899 8.05293C5.98544 8.22938 6.20409 8.3176 6.46492 8.3176Z" fill="white"/>
</svg>
