<svg width="24" height="24" viewBox="0 0 24 24" fill="none" xmlns="http://www.w3.org/2000/svg">
<path d="M13.6646 7.31433C13.291 6.86755 12.7563 6.64417 12.0605 6.64417C11.1084 6.64417 10.4602 6.99939 10.116 7.70984C9.91821 8.12 9.80103 8.77185 9.7644 9.66541H6.72119C6.77246 8.31042 7.01782 7.21545 7.45728 6.38049C8.29224 4.79114 9.77539 3.99646 11.9067 3.99646C13.5913 3.99646 14.9316 4.46521 15.9277 5.40271C16.9238 6.33289 17.4219 7.56702 17.4219 9.1051C17.4219 10.2843 17.0703 11.3317 16.3672 12.2472C15.9058 12.8551 15.1477 13.5326 14.093 14.2797L12.8406 15.1696C12.0569 15.7262 11.5186 16.129 11.2256 16.3781C10.9399 16.6271 10.6982 16.9164 10.5005 17.246H17.4548V20.0035H6.54541C6.57471 18.861 6.82007 17.8173 7.28149 16.8724C7.72827 15.8104 8.78296 14.6862 10.4456 13.4996C11.8884 12.4669 12.8223 11.7272 13.2471 11.2804C13.8989 10.5846 14.2249 9.82288 14.2249 8.99524C14.2249 8.32141 14.0381 7.76111 13.6646 7.31433Z" fill="white"/>
</svg>
