<svg width="24" height="24" viewBox="0 0 24 24" fill="none" xmlns="http://www.w3.org/2000/svg">
<path d="M10.2036 7.05066C9.85205 7.51941 9.68359 8.14563 9.69824 8.92932H6.77588C6.80518 8.13831 6.94067 7.38757 7.18237 6.67712C7.43872 6.05457 7.84155 5.47961 8.39087 4.95227C8.80103 4.57874 9.28809 4.29309 9.85205 4.09534C10.416 3.89758 11.1082 3.79871 11.9285 3.79871C13.4519 3.79871 14.6787 4.19421 15.6089 4.98523C16.5464 5.76892 17.0151 6.82361 17.0151 8.14929C17.0151 9.08679 16.7368 9.87781 16.1802 10.5223C15.8286 10.9252 15.4624 11.1998 15.0815 11.3463C15.3672 11.3463 15.7773 11.5917 16.312 12.0824C17.1104 12.8221 17.5095 13.8329 17.5095 15.1146C17.5095 16.4623 17.0408 17.6488 16.1033 18.6742C15.1731 19.6923 13.7925 20.2013 11.9614 20.2013C9.70557 20.2013 8.13818 19.4652 7.25928 17.993C6.79785 17.2094 6.5415 16.184 6.49023 14.9169H9.56641C9.56641 15.5541 9.66895 16.0814 9.87402 16.4989C10.2549 17.2679 10.947 17.6525 11.9504 17.6525C12.5657 17.6525 13.1003 17.4437 13.5544 17.0262C14.0159 16.6014 14.2466 15.9935 14.2466 15.2025C14.2466 14.1552 13.8218 13.4557 12.9722 13.1041C12.4888 12.9064 11.7271 12.8075 10.687 12.8075V10.5663C11.7051 10.5516 12.4155 10.4528 12.8184 10.2697C13.5142 9.96204 13.8621 9.33948 13.8621 8.40198C13.8621 7.79407 13.6826 7.29968 13.3237 6.91882C12.9722 6.53796 12.4741 6.34753 11.8296 6.34753C11.0898 6.34753 10.5479 6.58191 10.2036 7.05066Z" fill="white"/>
</svg>
