<svg width="24" height="24" viewBox="0 0 24 24" fill="none" xmlns="http://www.w3.org/2000/svg">
<path d="M9.4001 19.1998C8.5201 19.1998 7.76676 18.8865 7.1401 18.2598C6.51343 17.6331 6.2001 16.8798 6.2001 15.9998V9.4598C5.73343 9.28647 5.3501 8.99647 5.0501 8.5898C4.7501 8.18314 4.6001 7.7198 4.6001 7.1998C4.6001 6.53314 4.83343 5.96647 5.3001 5.4998C5.76676 5.03314 6.33343 4.7998 7.0001 4.7998C7.66676 4.7998 8.23343 5.03314 8.7001 5.4998C9.16676 5.96647 9.4001 6.53314 9.4001 7.1998C9.4001 7.7198 9.2501 8.18314 8.9501 8.5898C8.6501 8.99647 8.26676 9.28647 7.8001 9.4598V15.9998C7.8001 16.4398 7.95676 16.8165 8.2701 17.1298C8.58343 17.4431 8.9601 17.5998 9.4001 17.5998C9.8401 17.5998 10.2168 17.4431 10.5301 17.1298C10.8434 16.8165 11.0001 16.4398 11.0001 15.9998V7.9998C11.0001 7.1198 11.3134 6.36647 11.9401 5.7398C12.5668 5.11314 13.3201 4.7998 14.2001 4.7998C15.0801 4.7998 15.8334 5.11314 16.4601 5.7398C17.0868 6.36647 17.4001 7.1198 17.4001 7.9998V14.5398C17.8668 14.7131 18.2501 15.0031 18.5501 15.4098C18.8501 15.8165 19.0001 16.2798 19.0001 16.7998C19.0001 17.4665 18.7668 18.0331 18.3001 18.4998C17.8334 18.9665 17.2668 19.1998 16.6001 19.1998C15.9334 19.1998 15.3668 18.9665 14.9001 18.4998C14.4334 18.0331 14.2001 17.4665 14.2001 16.7998C14.2001 16.2798 14.3501 15.8131 14.6501 15.3998C14.9501 14.9865 15.3334 14.6998 15.8001 14.5398V7.9998C15.8001 7.5598 15.6434 7.18314 15.3301 6.8698C15.0168 6.55647 14.6401 6.3998 14.2001 6.3998C13.7601 6.3998 13.3834 6.55647 13.0701 6.8698C12.7568 7.18314 12.6001 7.5598 12.6001 7.9998V15.9998C12.6001 16.8798 12.2868 17.6331 11.6601 18.2598C11.0334 18.8865 10.2801 19.1998 9.4001 19.1998ZM7.0001 7.9998C7.22676 7.9998 7.41676 7.92314 7.5701 7.7698C7.72343 7.61647 7.8001 7.42647 7.8001 7.1998C7.8001 6.97314 7.72343 6.78314 7.5701 6.6298C7.41676 6.47647 7.22676 6.3998 7.0001 6.3998C6.77343 6.3998 6.58343 6.47647 6.4301 6.6298C6.27676 6.78314 6.2001 6.97314 6.2001 7.1998C6.2001 7.42647 6.27676 7.61647 6.4301 7.7698C6.58343 7.92314 6.77343 7.9998 7.0001 7.9998ZM16.6001 17.5998C16.8268 17.5998 17.0168 17.5231 17.1701 17.3698C17.3234 17.2165 17.4001 17.0265 17.4001 16.7998C17.4001 16.5731 17.3234 16.3831 17.1701 16.2298C17.0168 16.0765 16.8268 15.9998 16.6001 15.9998C16.3734 15.9998 16.1834 16.0765 16.0301 16.2298C15.8768 16.3831 15.8001 16.5731 15.8001 16.7998C15.8001 17.0265 15.8768 17.2165 16.0301 17.3698C16.1834 17.5231 16.3734 17.5998 16.6001 17.5998Z" fill="white"/>
</svg>
