<svg width="24" height="24" viewBox="0 0 24 24" fill="none" xmlns="http://www.w3.org/2000/svg">
<path d="M16.1 13.6L14.65 12.15C14.8 11.3666 14.575 10.6333 13.975 9.94998C13.375 9.26664 12.6 8.99998 11.65 9.14998L10.2 7.69998C10.4833 7.56664 10.7708 7.46664 11.0625 7.39998C11.3542 7.33331 11.6667 7.29998 12 7.29998C13.25 7.29998 14.3125 7.73748 15.1875 8.61248C16.0625 9.48748 16.5 10.55 16.5 11.8C16.5 12.1333 16.4667 12.4458 16.4 12.7375C16.3333 13.0291 16.2333 13.3166 16.1 13.6ZM19.3 16.75L17.85 15.35C18.4833 14.8666 19.0458 14.3375 19.5375 13.7625C20.0292 13.1875 20.45 12.5333 20.8 11.8C19.9667 10.1166 18.7708 8.77914 17.2125 7.78748C15.6542 6.79581 13.9167 6.29998 12 6.29998C11.5167 6.29998 11.0417 6.33331 10.575 6.39998C10.1083 6.46664 9.65 6.56664 9.2 6.69998L7.65 5.14998C8.33333 4.86664 9.03333 4.65414 9.75 4.51248C10.4667 4.37081 11.2167 4.29998 12 4.29998C14.5167 4.29998 16.7583 4.99581 18.725 6.38748C20.6917 7.77914 22.1167 9.58331 23 11.8C22.6167 12.7833 22.1125 13.6958 21.4875 14.5375C20.8625 15.3791 20.1333 16.1166 19.3 16.75ZM19.8 22.9L15.6 18.75C15.0167 18.9333 14.4292 19.0708 13.8375 19.1625C13.2458 19.2541 12.6333 19.3 12 19.3C9.48333 19.3 7.24167 18.6041 5.275 17.2125C3.30833 15.8208 1.88333 14.0166 1 11.8C1.35 10.9166 1.79167 10.0958 2.325 9.33748C2.85833 8.57914 3.46667 7.89998 4.15 7.29998L1.4 4.49998L2.8 3.09998L21.2 21.5L19.8 22.9ZM5.55 8.69998C5.06667 9.13331 4.625 9.60831 4.225 10.125C3.825 10.6416 3.48333 11.2 3.2 11.8C4.03333 13.4833 5.22917 14.8208 6.7875 15.8125C8.34583 16.8041 10.0833 17.3 12 17.3C12.3333 17.3 12.6583 17.2791 12.975 17.2375C13.2917 17.1958 13.6167 17.15 13.95 17.1L13.05 16.15C12.8667 16.2 12.6917 16.2375 12.525 16.2625C12.3583 16.2875 12.1833 16.3 12 16.3C10.75 16.3 9.6875 15.8625 8.8125 14.9875C7.9375 14.1125 7.5 13.05 7.5 11.8C7.5 11.6166 7.5125 11.4416 7.5375 11.275C7.5625 11.1083 7.6 10.9333 7.65 10.75L5.55 8.69998Z" fill="white"/>
</svg>
